<?xml version="1.0" encoding="UTF-8" standalone="no"?>
<!-- Created with Inkscape (http://www.inkscape.org/) -->

<svg
   width="1920"
   height="480"
   viewBox="0 0 507.99999 126.99999"
   version="1.1"
   id="svg1"
   xml:space="preserve"
   xmlns="http://www.w3.org/2000/svg"
   xmlns:svg="http://www.w3.org/2000/svg"><defs
     id="defs1" /><g
     id="layer1"
     transform="translate(0,-80.675481)"><path
       d="m 1580.71,3951.91 c 167.18,0 302.91,135.73 302.91,302.92 0,167.18 -135.73,302.92 -302.91,302.92 -167.19,0 -302.92,-135.74 -302.92,-302.92 0,-167.19 135.73,-302.92 302.92,-302.92 z m 0,9.04 c -162.2,0 -293.88,131.68 -293.88,293.88 0,162.2 131.68,293.88 293.88,293.88 162.19,0 293.88,-131.68 293.88,-293.88 0,-162.2 -131.69,-293.88 -293.88,-293.88 z"
       id="path2"
       style="clip-rule:evenodd;display:inline;fill:#13171e;fill-opacity:1;fill-rule:evenodd;stroke-linejoin:round;stroke-miterlimit:2"
       transform="matrix(0.19852691,0,0,0.19852691,-250.62739,-700.4222)" /><path
       d="m 1027.92,3973.34 47.72,60.92 v 172.78 h 128.42 v 95.44 h -128.42 v 211.6 c -32.36,8.2 -64.16,7.98 -95.444,0 v -211.6 H 851.773 v -95.44 h 128.423 v -172.78 z m -57.195,72.78 v 151.45 H 851.773 Z m 114.385,0 118.95,151.45 h -118.95 z"
       id="path1"
       style="clip-rule:evenodd;display:inline;fill:#13171e;fill-opacity:1;fill-rule:evenodd;stroke-linejoin:round;stroke-miterlimit:2"
       transform="matrix(0.21579152,0,0,0.21579152,-158.63115,-771.48232)" /><g
       id="text9"
       style="font-size:56.2704px;font-family:Montserrat;-inkscape-font-specification:Montserrat;display:inline;fill:#13171e;stroke-width:0.468919"
       aria-label="UpwardGaze"><path
         style="font-weight:bold;-inkscape-font-specification:'Montserrat Bold'"
         d="m 160.9291,142.14309 q -8.38429,0 -13.11101,-4.67044 -4.72671,-4.67044 -4.72671,-13.33608 v -22.058 h 9.11581 v 21.72037 q 0,5.62704 2.30708,8.10294 2.30709,2.4759 6.4711,2.4759 4.16401,0 6.47109,-2.4759 2.30709,-2.4759 2.30709,-8.10294 v -21.72037 h 9.00327 v 22.058 q 0,8.66564 -4.72672,13.33608 -4.72671,4.67044 -13.111,4.67044 z m 44.116,-0.22508 q -3.82639,0 -6.69618,-1.68811 -2.86979,-1.68811 -4.50163,-5.12061 -1.57557,-3.48876 -1.57557,-8.77818 0,-5.34569 1.5193,-8.77818 1.5193,-3.4325 4.38909,-5.12061 2.86979,-1.68811 6.86499,-1.68811 4.27655,0 7.65277,1.96946 3.4325,1.9132 5.40196,5.40196 2.02574,3.48877 2.02574,8.21548 0,4.78299 -2.02574,8.27175 -1.96946,3.48877 -5.40196,5.40196 -3.37622,1.91319 -7.65277,1.91319 z m -17.89399,10.4663 v -41.18994 h 8.38429 v 6.18975 l -0.16881,9.00326 0.56271,8.947 v 17.04993 z M 203.5258,134.7154 q 2.19454,0 3.88266,-1.01287 1.74438,-1.01286 2.75725,-2.86979 1.06913,-1.91319 1.06913,-4.50163 0,-2.64471 -1.06913,-4.50163 -1.01287,-1.85692 -2.75725,-2.86979 -1.68812,-1.01287 -3.88266,-1.01287 -2.19455,0 -3.93893,1.01287 -1.74438,1.01287 -2.75725,2.86979 -1.01287,1.85692 -1.01287,4.50163 0,2.58844 1.01287,4.50163 1.01287,1.85693 2.75725,2.86979 1.74438,1.01287 3.93893,1.01287 z m 28.52916,6.75245 -10.91646,-30.27348 h 8.27175 l 9.05953,26.0532 h -3.93892 l 9.45342,-26.0532 h 7.4277 l 9.17207,26.0532 h -3.93893 l 9.34089,-26.0532 h 7.76531 l -10.97272,30.27348 h -8.49683 L 246.2351,119.1285 h 2.58844 l -8.32802,22.33935 z m 63.34988,0 v -5.90839 l -0.56271,-1.29422 V 123.6864 q 0,-2.81352 -1.74438,-4.38909 -1.68811,-1.57557 -5.23315,-1.57557 -2.41963,0 -4.78298,0.78779 -2.30709,0.73151 -3.93893,2.02573 l -3.15114,-6.13347 q 2.47589,-1.74439 5.96466,-2.70098 3.48876,-0.9566 7.09007,-0.9566 6.92126,0 10.74765,3.26368 3.82638,3.26369 3.82638,10.18495 v 17.27501 z m -9.22835,0.45016 q -3.54504,0 -6.0772,-1.18168 -2.53217,-1.23794 -3.88266,-3.31995 -1.35049,-2.082 -1.35049,-4.67044 0,-2.70098 1.29422,-4.72672 1.35049,-2.02573 4.22028,-3.15114 2.86979,-1.18168 7.48396,-1.18168 h 8.04667 v 5.12061 h -7.09007 q -3.09487,0 -4.27655,1.01287 -1.12541,1.01286 -1.12541,2.53216 0,1.68812 1.29422,2.70098 1.35049,0.9566 3.65757,0.9566 2.19455,0 3.93893,-1.01287 1.74439,-1.06913 2.53217,-3.09487 l 1.35049,4.05147 q -0.9566,2.92606 -3.48876,4.44536 -2.53217,1.5193 -6.52737,1.5193 z m 25.37798,-0.45016 v -30.27348 h 8.38429 v 8.5531 l -1.18167,-2.47589 q 1.35049,-3.20742 4.33282,-4.83926 2.98233,-1.68811 7.25888,-1.68811 v 8.10294 q -0.56271,-0.0563 -1.01287,-0.0563 -0.45016,-0.0563 -0.9566,-0.0563 -3.6013,0 -5.85212,2.082 -2.19454,2.02574 -2.19454,6.35856 v 14.29268 z m 36.76598,0.45016 q -4.27655,0 -7.70904,-1.91319 -3.43249,-1.96946 -5.45823,-5.45823 -1.96946,-3.48876 -1.96946,-8.21548 0,-4.78298 1.96946,-8.27175 2.02574,-3.48876 5.45823,-5.40196 3.43249,-1.91319 7.70904,-1.91319 3.82639,0 6.69618,1.68811 2.86979,1.68811 4.44536,5.12061 1.57558,3.43249 1.57558,8.77818 0,5.28942 -1.51931,8.77818 -1.5193,3.4325 -4.38909,5.12061 -2.81352,1.68811 -6.80872,1.68811 z m 1.51931,-7.20261 q 2.13827,0 3.88265,-1.01287 1.74439,-1.01286 2.75725,-2.86979 1.06914,-1.91319 1.06914,-4.50163 0,-2.64471 -1.06914,-4.50163 -1.01286,-1.85692 -2.75725,-2.86979 -1.74438,-1.01287 -3.88265,-1.01287 -2.19455,0 -3.93893,1.01287 -1.74439,1.01287 -2.81352,2.86979 -1.01287,1.85692 -1.01287,4.50163 0,2.58844 1.01287,4.50163 1.06913,1.85693 2.81352,2.86979 1.74438,1.01287 3.93893,1.01287 z m 7.93412,6.75245 v -6.18974 l 0.16881,-9.00327 -0.5627,-8.94699 V 99.715212 h 8.77818 v 41.752638 z"
         id="path9" /><path
         style="font-weight:300;-inkscape-font-specification:'Montserrat Light';display:inline"
         d="m 393.89945,141.7492 q -4.44536,0 -8.21548,-1.46303 -3.77012,-1.5193 -6.58364,-4.22028 -2.75725,-2.70098 -4.27655,-6.30228 -1.5193,-3.65758 -1.5193,-7.9904 0,-4.33282 1.5193,-7.93413 1.5193,-3.65757 4.33282,-6.35855 2.81352,-2.70098 6.52737,-4.16401 3.77012,-1.5193 8.27175,-1.5193 4.27655,0 7.93413,1.35049 3.65757,1.35049 6.24601,4.05147 l -1.80065,1.91319 q -2.58844,-2.53217 -5.68331,-3.60131 -3.0386,-1.06913 -6.63991,-1.06913 -3.82639,0 -7.09007,1.29422 -3.26368,1.29421 -5.68331,3.65757 -2.41963,2.36336 -3.77012,5.5145 -1.29422,3.15114 -1.29422,6.86499 0,3.71385 1.29422,6.86499 1.35049,3.15114 3.77012,5.5145 2.41963,2.36335 5.68331,3.65757 3.26368,1.29422 7.09007,1.29422 3.48876,0 6.58364,-1.06913 3.15114,-1.06914 5.73958,-3.54504 l 1.63184,2.19455 q -2.64471,2.53216 -6.35856,3.82638 -3.65757,1.23795 -7.70904,1.23795 z m 11.31035,-5.34569 v -14.46149 h 2.75725 v 14.74285 z m 32.9745,5.06434 v -6.69618 l -0.11254,-1.01287 v -11.02899 q 0,-4.10774 -2.25081,-6.24602 -2.19455,-2.13827 -6.4711,-2.13827 -3.0386,0 -5.68331,1.06913 -2.58844,1.01287 -4.44536,2.64471 l -1.40676,-2.02573 q 2.19455,-1.96947 5.28942,-3.0386 3.09487,-1.12541 6.47109,-1.12541 5.45823,0 8.38429,2.75725 2.92606,2.75725 2.92606,8.21548 v 18.6255 z m -10.57883,0.22508 q -3.26368,0 -5.68331,-1.01287 -2.36336,-1.06913 -3.65758,-2.98233 -1.23795,-1.91319 -1.23795,-4.38909 0,-2.25081 1.01287,-4.05147 1.06914,-1.85692 3.48877,-2.98233 2.41962,-1.18168 6.47109,-1.18168 h 10.80392 v 2.19455 h -10.74765 q -4.5579,0 -6.41482,1.68811 -1.80066,1.68811 -1.80066,4.22028 0,2.81352 2.13828,4.50163 2.13827,1.68811 6.02093,1.68811 3.71385,0 6.24602,-1.68811 2.58844,-1.68811 3.82638,-4.89552 l 0.78779,1.91319 q -1.18168,3.20741 -4.05147,5.12061 -2.81352,1.85692 -7.20261,1.85692 z m 21.38274,-0.22508 v -1.91319 l 20.08853,-25.99693 0.73152,0.9566 h -20.5387 v -2.41963 h 22.73325 v 1.91319 l -20.14481,25.99693 -0.84405,-0.9566 h 21.32648 v 2.41963 z m 43.19696,0.22508 q -4.44536,0 -7.87786,-1.91319 -3.37622,-1.9132 -5.34568,-5.28942 -1.9132,-3.37622 -1.9132,-7.70904 0,-4.3891 1.80066,-7.70905 1.85692,-3.37622 5.06433,-5.28942 3.20741,-1.91319 7.20261,-1.91319 3.9952,0 7.14634,1.85692 3.20742,1.85693 5.00807,5.23315 1.85692,3.31995 1.85692,7.70904 0,0.16882 -0.0563,0.3939 0,0.16881 0,0.39389 h -25.94065 v -2.19455 h 24.42135 l -1.12541,1.06914 q 0.0563,-3.43249 -1.46303,-6.13347 -1.46303,-2.75725 -3.99519,-4.27655 -2.53217,-1.57557 -5.85213,-1.57557 -3.26368,0 -5.85212,1.57557 -2.53217,1.5193 -3.9952,4.27655 -1.46303,2.70098 -1.46303,6.18974 v 0.50644 q 0,3.6013 1.57557,6.41482 1.63185,2.75725 4.44537,4.33282 2.81352,1.5193 6.41482,1.5193 2.81352,0 5.23315,-1.01286 2.4759,-1.01287 4.16401,-3.09488 l 1.63184,1.85693 q -1.91319,2.36335 -4.83925,3.6013 -2.86979,1.18168 -6.24602,1.18168 z"
         id="path10" /></g><path
       style="font-size:23.8084px;font-family:'Inknut Antiqua';-inkscape-font-specification:'Inknut Antiqua';letter-spacing:11.161px;display:inline;fill:#13171e;stroke-width:0.198403"
       d="m 153.60768,183.52953 q 0,-0.71425 -0.5714,-1.35708 -0.5476,-0.64283 -1.4047,-1.19042 -0.8571,-0.54759 -2.2856,-1.33327 -1.76183,-0.97614 -2.88082,-1.7142 -1.09519,-0.73806 -1.85706,-1.71421 -0.76186,-0.97614 -0.76186,-2.14275 0,-1.19042 1.09518,-2.5475 1.09519,-1.38089 2.66654,-2.30942 1.59517,-0.95233 2.92844,-0.95233 1.59516,0 3.73791,0.35712 2.14276,0.35713 3.14271,0.76187 v 5.21404 h -2.23799 q -0.99995,-1.92848 -2.21418,-2.99986 -1.19042,-1.07138 -2.52369,-1.07138 -0.95233,0 -1.49993,0.61902 -0.54759,0.59521 -0.54759,1.52374 0,0.76187 0.5714,1.45231 0.59521,0.66664 1.45231,1.23804 0.88091,0.54759 2.35704,1.35708 1.73801,0.95233 2.80939,1.66659 1.07137,0.71425 1.80943,1.66658 0.73807,0.95234 0.73807,2.09514 0,1.19042 -1.16662,2.57131 -1.16661,1.35708 -2.857,2.30942 -1.66659,0.92852 -3.04748,0.92852 -1.66659,0 -3.99981,-0.35712 -2.30942,-0.35713 -3.33318,-0.76187 v -5.21404 h 2.23799 q 1.04757,1.92848 2.42846,2.99986 1.38089,1.07137 2.78558,1.07137 1.09519,0 1.76182,-0.61901 0.66664,-0.64283 0.66664,-1.54755 z m 25.89842,-9.14242 q 1.76182,0 3.1427,0.83329 1.38089,0.80948 2.14276,2.23799 0.78568,1.4285 0.78568,3.16652 0,1.88086 -1.21423,3.52364 -1.21423,1.61897 -3.04748,2.59511 -1.80943,0.95234 -3.49983,0.95234 -1.73801,0 -3.14271,-0.80949 -1.38089,-0.83329 -2.16656,-2.26179 -0.76187,-1.42851 -0.76187,-3.16652 0,-1.88086 1.21423,-3.49984 1.21422,-1.64277 3.02366,-2.59511 1.83325,-0.97614 3.52365,-0.97614 z m -1.38089,2.76177 q -0.99995,0 -1.52374,0.80948 -0.49998,0.78568 -0.49998,2.35704 0,1.9999 0.80949,3.33317 0.80949,1.30946 2.28561,1.30946 0.97614,0 1.47612,-0.80948 0.52378,-0.8333 0.52378,-2.40465 0,-1.99991 -0.80948,-3.28556 -0.80949,-1.30946 -2.2618,-1.30946 z m 27.89827,10.30904 h -7.52345 v -1.33327 l 2.11895,-1.78563 v -13.0232 l -2.11895,-1.40469 v -1.33327 l 4.66644,-1.90468 h 1.49993 v 18.52294 l 2.14276,0.71425 z m 20.87484,0 h -7.52345 v -1.33327 l 2.11894,-1.78563 v -5.52355 l -2.11894,-1.4047 v -1.33327 l 4.66644,-1.90467 h 1.49993 v 11.02329 l 2.14276,0.71425 z m -3.4046,-20.45142 q 1.02376,0 1.66659,0.66664 0.66663,0.64282 0.66663,1.61897 0,0.69044 -0.47617,1.28565 -0.47616,0.59521 -1.19042,0.95234 -0.71425,0.35712 -1.38088,0.35712 -0.99996,0 -1.66659,-0.64282 -0.64283,-0.66664 -0.64283,-1.64278 0,-0.69045 0.47617,-1.28566 0.47617,-0.59521 1.16661,-0.95233 0.71425,-0.35713 1.38089,-0.35713 z m 45.03522,1.49993 q 2.66654,0 4.71406,1.19042 2.07133,1.16661 3.19033,3.26175 1.1428,2.09514 1.1428,4.73787 0,2.71416 -1.71421,5.02357 -1.69039,2.28561 -4.21408,3.64269 -2.52369,1.33327 -4.8093,1.33327 -1.09519,0 -2.16656,-0.11904 -1.78563,-0.11904 -2.73797,-0.11904 h -3.76173 v -1.33327 l 2.23799,-1.76183 v -13.26127 l -2.64273,-0.80949 0.78568,-1.54755 h 3.35698 q 2.19037,0 4.28551,-0.14285 1.61897,-0.0952 2.33323,-0.0952 z m -0.99996,16.97539 q 1.49993,0 2.71416,-0.8571 1.23804,-0.85711 1.92848,-2.38084 0.71425,-1.52374 0.71425,-3.42841 0,-2.28561 -0.69044,-4.11886 -0.66663,-1.85705 -2.07133,-2.95224 -1.38089,-1.11899 -3.42841,-1.11899 -1.07138,0 -1.9761,0.5714 v 13.83268 q 1.21423,0.45236 2.78559,0.45236 z m 31.70765,-11.09471 q 2.49988,0 3.85696,1.90467 1.38089,1.90467 1.33327,5.28546 h -8.57102 q 0.23808,1.45231 1.02376,2.33322 0.78568,0.85711 2.04752,0.85711 1.66659,0 4.78549,-1.66659 l 0.71425,1.35708 -3.61887,2.88081 q -1.4047,0.35713 -3.26175,0.35713 -1.73802,0 -3.14271,-0.80949 -1.38089,-0.83329 -2.16657,-2.26179 -0.76187,-1.42851 -0.76187,-3.16652 0,-1.88086 1.21423,-3.49984 1.21423,-1.64277 3.02367,-2.59511 1.83325,-0.97614 3.52364,-0.97614 z m -1.30946,2.76177 q -1.04757,0 -1.57135,0.71425 -0.52379,0.69044 -0.5714,2.14276 h 4.5474 q -0.19047,-1.47612 -0.71425,-2.16657 -0.49998,-0.69044 -1.71421,-0.69044 z m 28.20781,-2.76177 q 1.76182,0 3.14271,0.83329 1.38088,0.80948 2.14275,2.23799 0.78568,1.4285 0.78568,3.16652 0,1.88086 -1.21423,3.52364 -1.21423,1.61897 -3.04747,2.59511 -1.80944,0.95234 -3.49984,0.95234 -1.73801,0 -3.14271,-0.80949 -1.38088,-0.83329 -2.16656,-2.26179 -0.76187,-1.42851 -0.76187,-3.16652 0,-1.88086 1.21423,-3.49984 1.21423,-1.64277 3.02367,-2.59511 1.83324,-0.97614 3.52364,-0.97614 z m -1.38089,2.76177 q -0.99995,0 -1.52374,0.80948 -0.49997,0.78568 -0.49997,2.35704 0,1.9999 0.80948,3.33317 0.80949,1.30946 2.28561,1.30946 0.97614,0 1.47612,-0.80948 0.52379,-0.8333 0.52379,-2.40465 0,-1.99991 -0.80949,-3.28556 -0.80949,-1.30946 -2.2618,-1.30946 z m 57.17745,6.14257 0.64283,1.4285 -4.38075,2.69035 q -1.16661,0.30951 -2.23799,0.40474 -1.07138,0.11904 -2.30941,0.11904 -2.85701,0 -5.07119,-1.21422 -2.21418,-1.21423 -3.42841,-3.33318 -1.21423,-2.14276 -1.21423,-4.85691 0,-2.78559 1.80944,-5.14262 1.80944,-2.38084 4.49979,-3.73792 2.71415,-1.38088 5.14261,-1.38088 1.47612,0 3.47603,0.35712 1.9999,0.35713 2.92843,0.76187 v 5.6664 h -2.23799 q -2.09514,-4.04743 -5.54736,-4.04743 -1.49993,0 -2.73796,0.8333 -1.21423,0.83329 -1.92848,2.2856 -0.71426,1.45232 -0.71426,3.26175 0,2.11895 0.69045,3.90458 0.71425,1.76182 2.14275,2.8332 1.42851,1.04757 3.52365,1.04757 0.0952,0 0.88091,0 0.78568,0 1.73801,-0.14285 v -4.76168 l -3.83315,-0.92853 0.78568,-1.54754 h 9.61859 v 1.33327 l -2.23799,1.90467 z m 22.23191,4.16647 H 396.64 v -1.33327 l 2.11895,-1.78563 v -13.0232 L 396.64,169.91113 v -1.33327 l 4.66645,-1.90468 h 1.49993 v 18.52294 l 2.14275,0.71425 z m 21.47006,-13.07081 q 1.76183,0 3.14271,0.83329 1.38089,0.80948 2.14276,2.23799 0.78568,1.4285 0.78568,3.16652 0,1.88086 -1.21423,3.52364 -1.21423,1.61897 -3.04748,2.59511 -1.80944,0.95234 -3.49983,0.95234 -1.73802,0 -3.14271,-0.80949 -1.38089,-0.83329 -2.16657,-2.26179 -0.76186,-1.42851 -0.76186,-3.16652 0,-1.88086 1.21422,-3.49984 1.21423,-1.64277 3.02367,-2.59511 1.83325,-0.97614 3.52364,-0.97614 z m -1.38088,2.76177 q -0.99996,0 -1.52374,0.80948 -0.49998,0.78568 -0.49998,2.35704 0,1.9999 0.80949,3.33317 0.80948,1.30946 2.2856,1.30946 0.97615,0 1.47613,-0.80948 0.52378,-0.8333 0.52378,-2.40465 0,-1.99991 -0.80949,-3.28556 -0.80948,-1.30946 -2.26179,-1.30946 z m 28.8744,0.61902 q -0.8571,0 -1.71421,0.76187 v 6.42826 l 3.61888,0.95234 -0.76187,1.54755 h -9.02338 v -1.33327 l 2.11895,-1.78563 v -5.40451 l -2.11895,-1.33327 v -1.33327 l 4.95214,-2.09514 0.90472,2.64273 2.16657,-2.23799 q 0.49997,-0.19046 1.16661,-0.19046 1.23804,0 2.11895,0.5714 0.90472,0.5714 1.26184,1.57135 l -2.2856,2.85701 h -1.49993 q -0.0238,-0.8571 -0.23809,-1.21423 -0.21427,-0.38093 -0.66663,-0.38093 z m 24.35088,9.69002 h -7.52345 v -1.33327 l 2.11894,-1.78563 v -5.52355 l -2.11894,-1.4047 v -1.33327 l 4.66644,-1.90467 h 1.49993 v 11.02329 l 2.14276,0.71425 z m -3.4046,-20.45142 q 1.02376,0 1.66659,0.66664 0.66663,0.64282 0.66663,1.61897 0,0.69044 -0.47617,1.28565 -0.47616,0.59521 -1.19042,0.95234 -0.71425,0.35712 -1.38088,0.35712 -0.99996,0 -1.66659,-0.64282 -0.64283,-0.66664 -0.64283,-1.64278 0,-0.69045 0.47617,-1.28566 0.47617,-0.59521 1.16661,-0.95233 0.71425,-0.35713 1.38089,-0.35713 z m 30.49344,20.45142 h -5.42832 v -2.07133 l -2.69034,2.11894 q -0.47617,0.19047 -1.19042,0.19047 -2.28561,0 -3.30937,-1.11899 -0.99995,-1.119 -0.99995,-2.69035 0,-0.92853 0.5714,-1.80944 0.5714,-0.90472 1.64278,-1.66659 h 5.9759 v -0.40474 q 0,-1.30946 -0.71425,-1.92848 -0.71425,-0.61902 -1.90467,-0.61902 -1.66659,0 -4.35694,1.30946 l -0.71425,-1.35708 3.30937,-2.66654 q 1.21423,-0.35712 2.8332,-0.35712 2.66654,0 4.11885,1.21422 1.47612,1.21423 1.47612,3.52365 v 5.9521 l 2.14276,0.83329 z m -8.09486,-2.95225 q 1.21423,0 2.66654,-0.99995 v -1.52374 h -3.83315 q -0.19046,0.28571 -0.2857,0.5476 -0.0714,0.23808 -0.0714,0.54759 0,0.59521 0.40474,0.99995 0.42855,0.40475 1.11899,0.40475 z"
       id="text10"
       aria-label="Soli Deo Gloria" /></g></svg>
